<?xml version="1.0" encoding="UTF-8"?>
<svg width="6px" height="20px" viewBox="0 0 6 20" version="1.1" xmlns="http://www.w3.org/2000/svg">
  <!-- Generator: Sketch 51.3 (57544) - http://www.bohemiancoding.com/sketch -->
  <title>Combined Shape</title>
  <desc>Created with Sketch.</desc>
  <defs></defs>
  <g id="Symbols" stroke="none" stroke-width="1" fill="none" fill-rule="evenodd">
    <g id="向右的角箭头">
      <path
        d="M4.29225,5.00025 L0.14625,0.85425 C-0.04875,0.65825 -0.04875,0.34225 0.14625,0.14625 C0.34225,-0.04875 0.65825,-0.04875 0.85425,0.14625 L5.35425,4.64625 C5.45125,4.74425 5.50025,4.87225 5.50025,5.00025 C5.50025,5.12825 5.45125,5.25625 5.35425,5.35425 L0.85425,9.85425 C0.65825,10.04925 0.34225,10.04925 0.14625,9.85425 C-0.04875,9.65825 -0.04875,9.34225 0.14625,9.14625 L4.29225,5.00025 Z"
        id="Combined-Shape" fill="#D5D5D5"></path>
      <path
        d="M4.29225,15.00025 L0.14625,10.85425 C-0.04875,10.65825 -0.04875,10.34225 0.14625,10.14625 C0.34225,9.95125 0.65825,9.95125 0.85425,10.14625 L5.35425,14.64625 C5.45125,14.74425 5.50025,14.87225 5.50025,15.00025 C5.50025,15.12825 5.45125,15.25625 5.35425,15.35425 L0.85425,19.85425 C0.65825,20.04925 0.34225,20.04925 0.14625,19.85425 C-0.04875,19.65825 -0.04875,19.34225 0.14625,19.14625 L4.29225,15.00025 Z"
        id="Combined-Shape" fill="#367CFF"></path>
    </g>
  </g>
</svg>
