<svg width="22px" height="5px" viewBox="0 0 22 5" version="1.1" xmlns="http://www.w3.org/2000/svg">
  <g id="Symbols" stroke="none" stroke-width="1" fill="none" fill-rule="evenodd">
    <path
      d="M0.500018411,0 L6.41939356,6.66133815e-16 C6.69553594,6.15407283e-16 6.91939356,0.223857625 6.91939356,0.5 C6.91939356,0.613535748 6.88075319,0.723691 6.80982797,0.812347524 L3.85014039,4.51195699 C3.67763562,4.72758796 3.36298943,4.76254865 3.14735846,4.59004388 C3.11852611,4.56697799 3.09233746,4.54078935 3.06927158,4.51195699 L0.109584007,0.812347524 C-0.0629207673,0.596716556 -0.0279600799,0.282070369 0.187670888,0.109565595 C0.276327412,0.038640376 0.386482664,2.08561785e-17 0.500018411,0 Z"
      id="arrow" fill="#FF4F33"
      transform="translate(3.459697, 2.349814) scale(1, -1) translate(-3.459697, -2.349814) "/>
    <path
      d="M8.04031242,0 L13.9596876,6.66133815e-16 C14.23583,6.15407283e-16 14.4596876,0.223857625 14.4596876,0.5 C14.4596876,0.613535748 14.4210472,0.723691 14.350122,0.812347524 L11.3904344,4.51195699 C11.2179296,4.72758796 10.9032834,4.76254865 10.6876525,4.59004388 C10.6588201,4.56697799 10.6326315,4.54078935 10.6095656,4.51195699 L7.64987802,0.812347524 C7.47737324,0.596716556 7.51233393,0.282070369 7.7279649,0.109565595 C7.81662142,0.038640376 7.92677668,2.08561785e-17 8.04031242,0 Z"
      id="arrow" fill="#17BB90"/>
    <path
      d="M15.5000184,0 L21.4193936,6.66133815e-16 C21.6955359,6.15407283e-16 21.9193936,0.223857625 21.9193936,0.5 C21.9193936,0.613535748 21.8807532,0.723691 21.809828,0.812347524 L18.8501404,4.51195699 C18.6776356,4.72758796 18.3629894,4.76254865 18.1473585,4.59004388 C18.1185261,4.56697799 18.0923375,4.54078935 18.0692716,4.51195699 L15.109584,0.812347524 C14.9370792,0.596716556 14.9720399,0.282070369 15.1876709,0.109565595 C15.2763274,0.038640376 15.3864827,2.08561785e-17 15.5000184,0 Z"
      id="Rectangle-3" fill="#367CFF"/>
  </g>
</svg>
